# xmcd CD database file
# Copyright (C) 1997 Ti Kan
#
# Track frame offsets:
#  150
#  18747
#  31702
#  46690
#  62042
#  86295
#  104320
#  118652
#  153802
#
# Disc length: 2191 seconds
#
# Revision: 1
# Processed by: cddbd v1.4b41PL1 Copyright (c) Steve Scherf et al.
# Submitted via: CDWizzard Release:4.32
#
DISCID=5f088d09
DTITLE=Jon Cleary - Alligator Lips and Dirty Rice
DYEAR=1900
DGENRE=
TTITLE0=Go Ahead Baby
TTITLE1=Long Distance Lover
TTITLE2=C'mon Second Line
TTITLE3=Groove Me
TTITLE4=In The Mood
TTITLE5=Big Chief
TTITLE6=Let Them Talk
TTITLE7=Pick Up The Pieces
TTITLE8=Burnt Mouth Boogie
EXTD=
EXTT0=
EXTT1=
EXTT2=
EXTT3=
EXTT4=
EXTT5=
EXTT6=
EXTT7=
EXTT8=
PLAYORDER=
